<?xml version="1.0" encoding="UTF-8"?>
<svg id="_图层_1" data-name="图层 1" xmlns="http://www.w3.org/2000/svg" viewBox="0 0 512 544">
  <defs>
    <style>
      .cls-1 {
        fill: #9c77ea;
        stroke-width: 0px;
      }
    </style>
  </defs>
  <path class="cls-1" d="M256,0c17.7,0,32,14.3,32,32v2c126.3,15.7,224,123.5,224,254,0,3.8-.1,7.5-.2,11.3-.3,6.9-5,12.8-11.7,14.7-6.7,1.9-13.8-.7-17.6-6.5-14.4-21.4-38.8-35.5-66.5-35.5-29.3,0-54.9,15.7-68.9,39.3-2.7,4.6-7.6,7.6-13,7.8-5.4.2-10.5-2.2-13.7-6.5-14.6-19.8-38-32.6-64.5-32.6s-49.9,12.8-64.5,32.6c-3.2,4.3-8.3,6.8-13.7,6.5-5.4-.3-10.2-3.2-13-7.8-14-23.6-39.6-39.3-68.9-39.3-27.7,0-52.1,14.1-66.5,35.5-3.9,5.7-11,8.4-17.6,6.5-6.6-1.9-11.2-7.8-11.5-14.7-.1-3.8-.2-7.5-.2-11.3C0,157.5,97.7,49.7,224,34v-2c0-17.7,14.3-32,32-32ZM288,360v102.6c0,45-36.5,81.4-81.4,81.4-30.8,0-59-17.4-72.8-45l-2.3-4.7c-7.9-15.8-1.5-35,14.3-42.9s35-1.5,42.9,14.3l2.3,4.7c3,5.9,9,9.6,15.6,9.6,9.6,0,17.4-7.8,17.4-17.4v-102.6c0-17.7,14.3-32,32-32s32,14.3,32,32Z"/>
</svg>